# xmcd CD database file
#
# Track frame offsets:
#	150
#	11581
#	26013
#	38702
#	50878
#	64116
#
# Disc length: 1049 seconds
#
# Revision: 0
# Processed by: cddbd v1.5.2PL0 Copyright (c) Steve Scherf et al.
# Submitted via: CDex 1.70beta2
#
DISCID=4b041706
DTITLE=Hussey, Howard - Cdn. - ON - Too Far Gone
DYEAR=1900
DGENRE=Country
TTITLE0=Too Far Gone
TTITLE1=Gene Airty, My hero
TTITLE2=Puppet On A String
TTITLE3=Just One Time
TTITLE4=All the World Is Lonely Now
TTITLE5=I'M Gonna Love You
EXTD=
EXTT0=
EXTT1=
EXTT2=
EXTT3=
EXTT4=
EXTT5=
PLAYORDER=
